PathFileType	4	(X/Y/Z)	./resultDataOpenSim/trcMotMarkerGrf/sub06/qtm-13-06.trc
DataRate	CameraRate	NumFrames	NumMarkers	Units	OrigDataRate	OrigDataStartFrame	OrigNumFrames
250.000000	250.000000	15	24	m	250.000000	401	534
Frame#	Time	L.Toe.Tip			R.Toe.Tip			L.Ankle.Lat			R.Ankle.Lat			L.Ankle.Med			R.Ankle.Med			L.Heel			R.Heel			L.Knee.Lat			R.Knee.Lat			L.Knee.Med			R.Knee.Med			L.Thigh.Upper			R.Thigh.Upper			L.ASIS			R.ASIS			V.Sacral			L.Acromium			R.Acromium			C7			L.Elbow			R.Elbow			L.Wrist.Lat			R.Wrist.Lat
		X1	Y1	Z1	X2	Y2	Z2	X3	Y3	Z3	X4	Y4	Z4	X5	Y5	Z5	X6	Y6	Z6	X7	Y7	Z7	X8	Y8	Z8	X9	Y9	Z9	X10	Y10	Z10	X11	Y11	Z11	X12	Y12	Z12	X13	Y13	Z13	X14	Y14	Z14	X15	Y15	Z15	X16	Y16	Z16	X17	Y17	Z17	X18	Y18	Z18	X19	Y19	Z19	X20	Y20	Z20	X21	Y21	Z21	X22	Y22	Z22	X23	Y23	Z23	X24	Y24	Z24

401	1.6	1.6263881	0.10429433	-0.061623389	0.89525197	0.034989517	0.095621971	1.4986956	0.085821541	-0.075485085	0.78576987	0.10933154	0.13062387	1.4982025	0.10349733	0.0075848805	0.81373403	0.12574587	0.045175371	1.4464459	0.029386706	-0.025323591	0.72826805	0.11775186	0.073009931	1.3881451	0.44299831	-0.083491927	1.0294386	0.42374495	0.15723013	1.3613673	0.43351824	0.039330509	1.0117228	0.42240238	0.026360615	1.2128707	0.78550711	-0.13633153	1.1147687	0.77634739	0.20195522	1.269691	0.83185203	-0.077478465	1.2329616	0.82689842	0.17064067	1.0685796	0.90075122	0.025510226	1.1587525	1.3101351	-0.15261775	1.168891	1.3061249	0.20817074	1.0866983	1.3407669	0.028537319	1.0179246	1.0378869	-0.17672517	1.2000759	0.98754939	0.30730634	1.0175534	0.81163111	-0.26734248	1.44057	1.0014052	0.23443847
402	1.604	1.6279581	0.098897046	-0.059865112	0.89569761	0.034986621	0.095859397	1.5002073	0.082383231	-0.075121817	0.78797585	0.11151559	0.13137355	1.4993378	0.099971419	0.0080531814	0.81635531	0.12762214	0.046058872	1.4463749	0.02695177	-0.025560401	0.73099049	0.12121569	0.07372141	1.3944508	0.44229223	-0.08343125	1.0359491	0.42290111	0.15789077	1.3674963	0.43259895	0.039095593	1.0184379	0.4213152	0.02689673	1.2203105	0.78503113	-0.13656497	1.1208203	0.77570354	0.20201611	1.2770098	0.83102213	-0.077486654	1.2396865	0.82614644	0.17054173	1.075279	0.89989121	0.024561041	1.1655378	1.3092402	-0.15351835	1.1749449	1.3054241	0.20724696	1.0930975	1.3397444	0.027398213	1.0246086	1.0370735	-0.17753315	1.2048535	0.98679585	0.30663539	1.0244851	0.81052578	-0.26747877	1.4455638	0.99878868	0.23426442
403	1.608	1.6294962	0.092862961	-0.058175623	0.89622495	0.034996977	0.096150224	1.5013431	0.078979275	-0.07477678	0.79042931	0.11381314	0.13213613	1.500299	0.096513834	0.0086381139	0.81919918	0.12954256	0.046970274	1.4460153	0.025185982	-0.02566167	0.73392385	0.12482415	0.074438917	1.4007397	0.44157101	-0.083381399	1.0426295	0.42200684	0.15859282	1.3736634	0.43163285	0.038883338	1.0253585	0.42019262	0.027557884	1.2277875	0.78452905	-0.13677438	1.1275957	0.77486783	0.20168383	1.2843691	0.8302128	-0.077512558	1.2464541	0.82540075	0.1704317	1.081992	0.89901484	0.023637049	1.1723615	1.308357	-0.1544454	1.1810575	1.3047124	0.2062866	1.099518	1.3387177	0.026238871	1.0313663	1.0362402	-0.17836236	1.2095888	0.98604688	0.30594722	1.031592	0.80940409	-0.26761979	1.4504923	0.99609361	0.2341344
404	1.612	1.6314468	0.086279511	-0.056933713	0.89679652	0.03500747	0.09646689	1.5025023	0.075976865	-0.074462457	0.79311361	0.11618271	0.1329133	1.5017328	0.093478349	0.0093293428	0.82228543	0.13149236	0.047913102	1.4460352	0.024532354	-0.025394999	0.73700809	0.12859478	0.0752229	1.406981	0.44079564	-0.083313647	1.0495273	0.42103656	0.15931007	1.3798756	0.43058947	0.038725454	1.0324723	0.41903689	0.028318618	1.2353128	0.7839846	-0.13696809	1.1351454	0.77380803	0.20088609	1.2917328	0.82944519	-0.077560325	1.2532679	0.82465587	0.17030572	1.0886913	0.89819293	0.022707333	1.1792182	1.3074822	-0.15539973	1.1872197	1.3039913	0.20529268	1.1059351	1.3377171	0.025069204	1.0381974	1.0353869	-0.17920705	1.2142676	0.98529833	0.30524864	1.0388717	0.80825777	-0.26776875	1.4553714	0.99330936	0.23405828
405	1.616	1.6342693	0.079449148	-0.056554236	0.89734991	0.034990295	0.096742747	1.5043178	0.073806989	-0.07415995	0.79603307	0.11856281	0.1337669	1.5044178	0.091203209	0.010000317	0.8256366	0.13345565	0.048895548	1.4470131	0.025227394	-0.024752699	0.74031063	0.13249299	0.076051931	1.4131411	0.43994113	-0.08319229	1.0566919	0.41997668	0.16003184	1.3861142	0.42944645	0.038623377	1.039761	0.41782024	0.029132405	1.2428821	0.78339183	-0.13716854	1.1431925	0.77257963	0.19971583	1.2990707	0.82874529	-0.077618229	1.2601433	0.82391199	0.17014507	1.0953568	0.89748522	0.021772199	1.1860972	1.3066202	-0.15638243	1.1934204	1.303274	0.2042738	1.1123252	1.3367796	0.023883291	1.0451078	1.0345134	-0.18007395	1.2189004	0.98455354	0.30454866	1.04632	0.80707734	-0.26793111	1.4602023	0.99043126	0.23404314
406	1.62	1.6381233	0.072955821	-0.057148803	0.89786158	0.034929211	0.09693528	1.50736	0.072647067	-0.073818518	0.79923257	0.12092727	0.13476527	1.508704	0.089767115	0.010476939	0.82927324	0.13542083	0.049922337	1.4491258	0.027055578	-0.024004579	0.7440144	0.13645729	0.076842394	1.419192	0.43901785	-0.082992374	1.0641367	0.41882446	0.16075907	1.3923583	0.42819593	0.038551551	1.0472511	0.41649008	0.029986711	1.2504778	0.78277741	-0.13740613	1.1511364	0.77132944	0.19842205	1.3063592	0.82812868	-0.077668641	1.2671096	0.82317971	0.16992146	1.1019892	0.89690963	0.020874251	1.1929987	1.3057761	-0.15739506	1.1996512	1.3025766	0.20323963	1.1186938	1.3359462	0.022659646	1.0521029	1.033617	-0.18097485	1.2235045	0.98381641	0.30384359	1.0539308	0.8058589	-0.26811179	1.4649794	0.98746976	0.2340735
407	1.624	1.6427221	0.067425609	-0.058310433	0.89837173	0.034840225	0.097076363	1.5117249	0.072214572	-0.073430656	0.80274654	0.12332428	0.13589077	1.5141147	0.088936813	0.010673746	0.83321291	0.13738008	0.050991552	1.4521161	0.029429357	-0.023465823	0.74822951	0.14048037	0.077581181	1.4251383	0.43807666	-0.082717212	1.0718672	0.41757853	0.16151083	1.398574	0.42685027	0.038477097	1.0550032	0.41499888	0.03090374	1.258075	0.782218	-0.13770566	1.1582339	0.77024676	0.19730636	1.3135776	0.82759794	-0.077715032	1.2741793	0.82247717	0.16961064	1.1086024	0.89643697	0.020061073	1.1999306	1.3049516	-0.15843433	1.2059088	1.3019134	0.20220096	1.125091	1.3352442	0.021386543	1.0591818	1.0326919	-0.1819119	1.2280753	0.98309001	0.30311433	1.0616976	0.80460827	-0.2683108	1.4697061	0.98444401	0.23411409
408	1.628	1.6475116	0.063012344	-0.059305786	0.89892848	0.034753376	0.097231973	1.5168965	0.071953375	-0.073075478	0.80654912	0.12582089	0.13704892	1.5196623	0.088356411	0.010639892	0.83747972	0.13932557	0.052109035	1.4554616	0.031748617	-0.023291878	0.75293241	0.1446128	0.078340926	1.4310645	0.43719421	-0.08239517	1.0799287	0.41623697	0.16233477	1.4047021	0.42545185	0.038374429	1.0630582	0.41333752	0.031913799	1.2656444	0.78182684	-0.13807324	1.16387	0.76947924	0.19661551	1.3207117	0.82715361	-0.077788947	1.2812993	0.82181149	0.16920659	1.1152096	0.89601249	0.019348688	1.2068995	1.3041479	-0.15949261	1.2121812	1.3012965	0.20117218	1.1315872	1.3346643	0.020076943	1.0663399	1.0317303	-0.18287611	1.2325772	0.98238406	0.30233725	1.0696181	0.80333604	-0.2685243	1.4743887	0.98137091	0.23414657
409	1.632	1.6519326	0.059245358	-0.059583961	0.8995301	0.034683419	0.097427568	1.5220542	0.071432651	-0.072848285	0.81060121	0.12841253	0.1381784	1.5246178	0.087743729	0.010494797	0.84212504	0.14123956	0.053306538	1.4586031	0.033677356	-0.023476341	0.75808356	0.14888685	0.079174117	1.4371539	0.43646069	-0.082059841	1.0884142	0.41479756	0.16329295	1.4106885	0.4240863	0.038228317	1.0714072	0.41153755	0.033046253	1.2731565	0.78171168	-0.13849036	1.1679253	0.76903205	0.19647325	1.3277589	0.82680586	-0.077924576	1.2883777	0.82116819	0.16871904	1.1218235	0.89558489	0.018729487	1.2139089	1.3033701	-0.16056553	1.218438	1.300739	0.20016263	1.1382234	1.3341664	0.018750754	1.0735719	1.030731	-0.18386001	1.2369677	0.98171485	0.30150054	1.0776943	0.80205319	-0.26874815	1.4790105	0.97826205	0.23419187
410	1.636	1.655566	0.055455228	-0.059130823	0.90014728	0.034628927	0.097632865	1.5265051	0.070569433	-0.072770432	0.81490842	0.13102741	0.13928637	1.5288206	0.086961265	0.010368732	0.84722855	0.14308669	0.054628582	1.4611391	0.03515556	-0.023922894	0.76370152	0.1532754	0.080063824	1.4436268	0.43597755	-0.081742098	1.0974006	0.41326235	0.16442481	1.4165293	0.42288586	0.038033466	1.0800276	0.40964042	0.034324966	1.2805845	0.78193321	-0.13891945	1.1711592	0.76869751	0.19681442	1.3347226	0.82657491	-0.078133907	1.2953616	0.82053065	0.16815836	1.1284635	0.89512951	0.018202592	1.2209578	1.3026273	-0.16165357	1.2246522	1.3002556	0.19917203	1.144991	1.3337203	0.017416863	1.0808745	1.0297095	-0.18486811	1.2412383	0.98109391	0.30061884	1.085929	0.80077147	-0.26897846	1.4835281	0.97512147	0.23428789
411	1.64	1.6581966	0.051345551	-0.058345203	0.90079117	0.034588804	0.097802687	1.5298903	0.069561062	-0.072782973	0.81950229	0.13360205	0.14038575	1.5322641	0.086007557	0.010402006	0.85283338	0.14483444	0.056078257	1.4629248	0.036236996	-0.024457828	0.76983019	0.15770853	0.08094894	1.4506111	0.43584565	-0.081469482	1.1068415	0.41164946	0.16572608	1.4222756	0.42200718	0.037797399	1.088938	0.40766768	0.03574951	1.2879013	0.78248795	-0.13932091	1.1753004	0.76807888	0.19733342	1.3416019	0.82648254	-0.07840942	1.3022451	0.81990311	0.16752824	1.1351436	0.89466248	0.0177781	1.228039	1.30193	-0.16275631	1.2308383	1.2998587	0.1982007	1.1518511	1.3333334	0.016081228	1.0882497	1.028697	-0.18591328	1.2454292	0.98052687	0.29973446	1.0943276	0.79950146	-0.26921261	1.4879109	0.97194037	0.23445148
412	1.644	1.6598779	0.047223827	-0.057575776	0.90153428	0.034563372	0.097928739	1.5321849	0.068685795	-0.072782361	0.82440715	0.13611413	0.14145798	1.5347614	0.084946314	0.010725213	0.85889465	0.14647978	0.057603407	1.4640649	0.036971539	-0.024861427	0.77648325	0.16211511	0.081769726	1.4580438	0.43613114	-0.081245315	1.1165624	0.40999271	0.16716886	1.4279984	0.42158528	0.037546472	1.0981901	0.40560973	0.037278281	1.295075	0.78332103	-0.13967549	1.1823381	0.76678118	0.19760195	1.348381	0.82654226	-0.078739489	1.3090378	0.81930118	0.16682966	1.1418446	0.89423253	0.017457432	1.2351419	1.3012868	-0.16386747	1.2370551	1.2995511	0.19725643	1.1587596	1.3330265	0.014757477	1.0957033	1.027722	-0.18699868	1.249606	0.98003069	0.29890107	1.1029011	0.79825075	-0.2694512	1.492168	0.96870038	0.23467119
413	1.648	1.6609377	0.043700672	-0.056813895	0.90245981	0.034550608	0.098054385	1.5336368	0.068139776	-0.072647154	0.82964661	0.13856452	0.14248379	1.5361993	0.083829762	0.011378216	0.86534607	0.14803416	0.059172166	1.4648166	0.037437548	-0.024994968	0.78362572	0.1664723	0.082512127	1.46571	0.4368284	-0.081030105	1.1264047	0.40831886	0.16873543	1.4337647	0.42168888	0.03732686	1.107806	0.4034285	0.038850452	1.3020731	0.78435311	-0.13999943	1.1928735	0.76476294	0.19740869	1.3550299	0.82675361	-0.079118597	1.3157552	0.8187236	0.16606418	1.1484808	0.89388829	0.017233061	1.2422567	1.3007038	-0.16497303	1.2433547	1.2993267	0.19634947	1.1656765	1.3328013	0.013459913	1.1032395	1.026793	-0.18810497	1.2538136	0.97963543	0.29814784	1.111659	0.79702602	-0.26969608	1.4963227	0.96538892	0.23493123
414	1.652	1.6618006	0.041144574	-0.055855181	0.90360744	0.034565491	0.098222017	1.5346535	0.067967492	-0.072286128	0.83523556	0.14097826	0.14349795	1.5368503	0.08271122	0.012273614	0.87215558	0.14951331	0.060812907	1.4654281	0.037783571	-0.024899411	0.79119434	0.1708318	0.083211864	1.4733967	0.43785619	-0.080768284	1.1363277	0.40663252	0.17042485	1.4396373	0.42230574	0.037193314	1.1177623	0.40107101	0.040434619	1.3088672	0.78550039	-0.14034009	1.2051457	0.76247439	0.19690436	1.3615179	0.82710503	-0.079550217	1.3223836	0.81813929	0.16522838	1.1548734	0.8936554	0.017118244	1.2493771	1.3001815	-0.16605577	1.2497435	1.2991752	0.19548555	1.1725691	1.3326433	0.012197313	1.1108618	1.0258977	-0.18920339	1.2580248	0.97934901	0.29743294	1.1206013	0.79583279	-0.26994897	1.5003813	0.96200861	0.23522484
415	1.656	1.6627353	0.039443251	-0.054632581	0.90498147	0.034664087	0.098424692	1.5356225	0.068072278	-0.071697656	0.8411343	0.14343045	0.14458109	1.5372419	0.081685985	0.013267162	0.8792631	0.15096932	0.062563673	1.4660141	0.038155072	-0.024738352	0.79911267	0.17529153	0.083925146	1.4809948	0.43909164	-0.080431695	1.1463434	0.40492977	0.17223657	1.4456661	0.42336224	0.037186288	1.1280285	0.39849117	0.042039344	1.3154347	0.78669032	-0.14075228	1.2165381	0.76045743	0.19630454	1.3678352	0.82758347	-0.080041734	1.3288493	0.81750021	0.16430651	1.160834	0.89353337	0.017142978	1.2565025	1.2997142	-0.16710334	1.2562036	1.2990827	0.19466193	1.1794128	1.3325369	0.010976796	1.1185753	1.0250167	-0.1902814	1.2621382	0.97913777	0.29664925	1.1297196	0.7946722	-0.27021323	1.5043369	0.95857073	0.23554759
